<?xml version="1.0" encoding="UTF-8"?>
<svg version="1.1" xmlns="http://www.w3.org/2000/svg" width="400" height="400">
<path d="M0 0 C132 0 264 0 400 0 C400 132 400 264 400 400 C268 400 136 400 0 400 C0 268 0 136 0 0 Z " fill="#FECC00" transform="translate(0,0)"/>
<path d="M0 0 C0.65693848 0.29632324 1.31387695 0.59264648 1.99072266 0.89794922 C11.57107227 5.27825128 19.84198989 10.27877376 28 17 C29.14082031 17.91265625 29.14082031 17.91265625 30.3046875 18.84375 C39.06971375 26.12037557 46.91327917 36.61788637 49 48 C50.31048632 62.9798667 45.56133554 74.79829208 36.109375 86.30078125 C15.23987002 108.72355091 -16.06697002 117.71187962 -45 124 C-46.02480469 124.22558594 -47.04960937 124.45117188 -48.10546875 124.68359375 C-63.16876366 127.69625273 -78.50149186 128.3317003 -93.81616211 128.26074219 C-96.56451385 128.24999212 -99.31221428 128.26073297 -102.06054688 128.2734375 C-116.9867578 128.28577369 -131.64415262 127.1323794 -146.3125 124.25 C-147.611875 123.99512817 -147.611875 123.99512817 -148.9375 123.73510742 C-178.95570476 117.61938551 -214.47080616 106.05309576 -232.65625 79.58984375 C-236.0035115 74.28180897 -238.36298315 69.0534292 -240 63 C-240.27650391 61.99259766 -240.27650391 61.99259766 -240.55859375 60.96484375 C-242.68888414 51.48222368 -239.42447908 41.38872241 -234.5703125 33.25 C-214.30673441 4.21561946 -176.79450508 -8.68083625 -143.35693359 -14.65039062 C-96.253937 -22.31139175 -43.94015657 -19.88567609 0 0 Z " fill="#FDCB02" transform="translate(296,145)"/>
<path d="M0 0 C0.65693848 0.29632324 1.31387695 0.59264648 1.99072266 0.89794922 C11.57107227 5.27825128 19.84198989 10.27877376 28 17 C29.14082031 17.91265625 29.14082031 17.91265625 30.3046875 18.84375 C39.06971375 26.12037557 46.91327917 36.61788637 49 48 C50.31048632 62.9798667 45.56133554 74.79829208 36.109375 86.30078125 C15.23987002 108.72355091 -16.06697002 117.71187962 -45 124 C-46.02480469 124.22558594 -47.04960937 124.45117188 -48.10546875 124.68359375 C-63.16876366 127.69625273 -78.50149186 128.3317003 -93.81616211 128.26074219 C-96.56451385 128.24999212 -99.31221428 128.26073297 -102.06054688 128.2734375 C-116.9867578 128.28577369 -131.64415262 127.1323794 -146.3125 124.25 C-147.611875 123.99512817 -147.611875 123.99512817 -148.9375 123.73510742 C-178.95570476 117.61938551 -214.47080616 106.05309576 -232.65625 79.58984375 C-236.0035115 74.28180897 -238.36298315 69.0534292 -240 63 C-240.27650391 61.99259766 -240.27650391 61.99259766 -240.55859375 60.96484375 C-242.68888414 51.48222368 -239.42447908 41.38872241 -234.5703125 33.25 C-214.30673441 4.21561946 -176.79450508 -8.68083625 -143.35693359 -14.65039062 C-96.253937 -22.31139175 -43.94015657 -19.88567609 0 0 Z M-148 -2 C-149.03898437 -1.78569336 -150.07796875 -1.57138672 -151.1484375 -1.35058594 C-176.62596627 4.05159377 -207.14102009 13.68476871 -223 36 C-228.31010504 44.38218151 -229.8743573 51.02493786 -229 61 C-227.24571691 67.99708341 -223.67164693 73.58952813 -219 79 C-218.52175781 79.57234375 -218.04351562 80.1446875 -217.55078125 80.734375 C-195.73572177 104.69247559 -153.94207899 113.94622016 -123 116 C-96.39808995 117.22904391 -69.12198956 117.75543545 -43 112 C-41.42078418 111.68383877 -39.84136647 111.36868373 -38.26171875 111.0546875 C-10.85582727 105.33919837 18.31159803 93.90951579 34.3984375 69.9140625 C38.47896211 62.36075098 38.46845471 52.24548966 36.1875 44.09765625 C27.95111191 25.9947616 8.88836274 15.11574181 -8.86425781 8.2043457 C-36.80904737 -2.24206406 -65.52753721 -6.43241286 -95.25 -6.375 C-96.30936768 -6.37445618 -97.36873535 -6.37391235 -98.46020508 -6.37335205 C-115.28530045 -6.33369716 -131.49011195 -5.50355182 -148 -2 Z " fill="#0C0702" transform="translate(296,145)"/>
<path d="M0 0 C12 0 12 0 15.0703125 2.88671875 C16.15625 4.73242188 16.15625 4.73242188 17.125 6.6875 C17.66253906 7.62625977 17.66253906 7.62625977 18.2109375 8.58398438 C20.09650765 11.94353566 21.66117478 15.39069284 23 19 C23.66 19 24.32 19 25 19 C25.25007813 18.32582031 25.50015625 17.65164062 25.7578125 16.95703125 C27.25263296 13.39860644 28.95995809 10.0319347 30.875 6.6875 C31.35453125 5.71973633 31.35453125 5.71973633 31.84375 4.73242188 C32.9296875 2.88671875 32.9296875 2.88671875 36 0 C39.96 0 43.92 0 48 0 C48 15.84 48 31.68 48 48 C44.37 48 40.74 48 37 48 C36.505 35.625 36.505 35.625 36 23 C35.05125 24.815 34.1025 26.63 33.125 28.5 C29.84879001 33.6000111 29.84879001 33.6000111 26.5546875 35.15234375 C23.44226643 35.49975466 21.83496931 35.37219761 19 34 C15.91092515 30.17988075 14.1501506 26.48727082 12 22 C11.67 30.58 11.34 39.16 11 48 C7.37 48 3.74 48 0 48 C0 32.16 0 16.32 0 0 Z " fill="#070302" transform="translate(128,176)"/>
<path d="M0 0 C12 0 12 0 16.0625 4 C17.41038322 5.97632666 18.71770304 7.98050235 20 10 C20.96023039 11.4012076 21.92679413 12.79808852 22.8984375 14.19140625 C24.87839554 17.0323398 26.83828062 19.88490898 28.77734375 22.75390625 C30.66952352 25.73083999 30.66952352 25.73083999 32 27 C32.33 18.09 32.66 9.18 33 0 C36.63 0 40.26 0 44 0 C44 16.17 44 32.34 44 49 C32 49 32 49 28.703125 45.88671875 C27.84287672 44.51271339 27.02615967 43.11069851 26.25 41.6875 C25.35432584 40.22176231 24.45718 38.75692296 23.55859375 37.29296875 C22.91833252 36.20314697 22.91833252 36.20314697 22.26513672 35.09130859 C20.44845965 32.0882874 18.40715837 29.31619271 16.3125 26.5 C15.219375 25.015 14.12625 23.53 13 22 C12.67 30.91 12.34 39.82 12 49 C8.04 49 4.08 49 0 49 C0 32.83 0 16.66 0 0 Z " fill="#030103" transform="translate(228,176)"/>
<path d="M0 0 C13.53 0 27.06 0 41 0 C41 3.63 41 7.26 41 11 C36.05 11 31.1 11 26 11 C26 23.21 26 35.42 26 48 C22.37 48 18.74 48 15 48 C15 35.79 15 23.58 15 11 C10.05 11 5.1 11 0 11 C0 7.37 0 3.74 0 0 Z " fill="#020102" transform="translate(182,176)"/>
<path d="M0 0 C11 0 11 0 14.1875 2.625 C16.09065593 6.1688076 16.47002518 8.0517885 16 12 C16.66 12 17.32 12 18 12 C17.67 13.65 17.34 15.3 17 17 C15.68 17 14.36 17 13 17 C11.13640452 18.01860872 11.13640452 18.01860872 10 20 C9.58486237 23.0030829 9.58486237 23.0030829 9.70703125 26.41796875 C9.71669922 27.67158203 9.72636719 28.92519531 9.73632812 30.21679688 C9.76146484 31.52712891 9.78660156 32.83746094 9.8125 34.1875 C9.82755033 35.52277163 9.84123813 36.85805937 9.85351562 38.19335938 C9.88892306 41.46264576 9.9383111 44.73112093 10 48 C6.7 48 3.4 48 0 48 C0 32.16 0 16.32 0 0 Z " fill="#050201" transform="translate(229,176)"/>
<path d="M0 0 C2.05078125 0.03255208 4.1015625 0.06510417 6.15234375 0.09765625 C6.48234375 1.08765625 6.81234375 2.07765625 7.15234375 3.09765625 C7.93609375 2.74703125 8.71984375 2.39640625 9.52734375 2.03515625 C10.82671875 1.57109375 10.82671875 1.57109375 12.15234375 1.09765625 C12.81234375 1.42765625 13.47234375 1.75765625 14.15234375 2.09765625 C16.99442401 2.25471956 19.81571682 2.35615195 22.66015625 2.4140625 C23.50077606 2.4348436 24.34139587 2.45562469 25.20748901 2.47703552 C27.8973561 2.54251064 30.58732218 2.60140645 33.27734375 2.66015625 C35.09896864 2.70334341 36.92058346 2.74695777 38.7421875 2.79101562 C43.21213769 2.89818993 47.68218761 2.9994631 52.15234375 3.09765625 C52.15234375 3.42765625 52.15234375 3.75765625 52.15234375 4.09765625 C38.95234375 4.09765625 25.75234375 4.09765625 12.15234375 4.09765625 C12.15234375 7.72765625 12.15234375 11.35765625 12.15234375 15.09765625 C17.10234375 15.09765625 22.05234375 15.09765625 27.15234375 15.09765625 C27.15234375 27.30765625 27.15234375 39.51765625 27.15234375 52.09765625 C30.78234375 52.09765625 34.41234375 52.09765625 38.15234375 52.09765625 C38.15234375 53.08765625 38.15234375 54.07765625 38.15234375 55.09765625 C36.38159458 55.12471354 34.61072664 55.1440782 32.83984375 55.16015625 C31.85371094 55.17175781 30.86757812 55.18335938 29.8515625 55.1953125 C27.15234375 55.09765625 27.15234375 55.09765625 24.15234375 54.09765625 C24.48234375 41.88765625 24.81234375 29.67765625 25.15234375 17.09765625 C20.53234375 17.09765625 15.91234375 17.09765625 11.15234375 17.09765625 C10.16234375 16.76765625 9.17234375 16.43765625 8.15234375 16.09765625 C7.82234375 27.97765625 7.49234375 39.85765625 7.15234375 52.09765625 C6.82234375 52.09765625 6.49234375 52.09765625 6.15234375 52.09765625 C6.15234375 36.25765625 6.15234375 20.41765625 6.15234375 4.09765625 C2.19234375 4.09765625 -1.76765625 4.09765625 -5.84765625 4.09765625 C-6.50765625 5.74765625 -7.16765625 7.39765625 -7.84765625 9.09765625 C-9.97265625 11.41015625 -9.97265625 11.41015625 -11.84765625 13.09765625 C-11.84765625 12.10765625 -11.84765625 11.11765625 -11.84765625 10.09765625 C-12.50765625 10.09765625 -13.16765625 10.09765625 -13.84765625 10.09765625 C-13.51765625 9.43765625 -13.18765625 8.77765625 -12.84765625 8.09765625 C-11.85765625 8.42765625 -10.86765625 8.75765625 -9.84765625 9.09765625 C-9.62078125 8.14890625 -9.39390625 7.20015625 -9.16015625 6.22265625 C-7.84765625 3.09765625 -7.84765625 3.09765625 -5.28515625 1.78515625 C-4.48078125 1.55828125 -3.67640625 1.33140625 -2.84765625 1.09765625 C-1.84765625 0.09765625 -1.84765625 0.09765625 0 0 Z " fill="#D8B219" transform="translate(169.84765625,171.90234375)"/>
<path d="M0 0 C1.03229736 -0.00199402 2.06459473 -0.00398804 3.12817383 -0.00604248 C15.32336916 -0.00337469 27.19176298 0.46771788 39.25 2.375 C39.25 2.705 39.25 3.035 39.25 3.375 C38.53019958 3.37055878 37.81039917 3.36611755 37.06878662 3.36154175 C30.18788364 3.32097981 23.30699918 3.2907744 16.42600632 3.27137566 C12.89088471 3.26106643 9.35586421 3.24715217 5.82080078 3.22412109 C-18.03761814 3.00386829 -18.03761814 3.00386829 -41.75 5.375 C-42.08 5.705 -42.41 6.035 -42.75 6.375 C-44.55864198 6.56271737 -46.37267472 6.69921791 -48.1875 6.8125 C-56.57970197 7.45153058 -56.57970197 7.45153058 -64.75 9.375 C-65.08 10.035 -65.41 10.695 -65.75 11.375 C-67.9375 11.90234375 -67.9375 11.90234375 -70.75 12.3125 C-75.27376539 13.05083477 -79.36160838 14.17461434 -83.66796875 15.7109375 C-86.6792666 16.67138897 -89.61205143 17.04117568 -92.75 17.375 C-81.29068471 9.73545647 -66.00090338 7.21008623 -52.75 4.375 C-51.74211426 4.1589209 -50.73422852 3.9428418 -49.69580078 3.72021484 C-33.17709759 0.37502467 -16.79130872 0.00861977 0 0 Z " fill="#E0B92E" transform="translate(200.75,138.625)"/>
<path d="M0 0 C0.33 0 0.66 0 1 0 C1 15.84 1 31.68 1 48 C4.3 48 7.6 48 11 48 C10.94875977 47.17274414 10.89751953 46.34548828 10.84472656 45.49316406 C10.6248208 41.74634861 10.43706284 37.99859257 10.25 34.25 C10.16878906 32.94804687 10.08757812 31.64609375 10.00390625 30.3046875 C9.94589844 29.05429688 9.88789063 27.80390625 9.828125 26.515625 C9.7652832 25.36352539 9.70244141 24.21142578 9.63769531 23.02441406 C10 20 10 20 11.76074219 17.59277344 C14 16 14 16 18 16 C18.33 14.68 18.66 13.36 19 12 C18.34 12 17.68 12 17 12 C17.33 10.68 17.66 9.36 18 8 C19.46236093 9.9137069 20.91994246 11.83075233 22.375 13.75 C22.7875 14.28882813 23.2 14.82765625 23.625 15.3828125 C25.75808717 18.2039923 27.40730276 20.81460552 29 24 C26.03 24.66 23.06 25.32 20 26 C20.66 28.31 21.32 30.62 22 33 C18.26319827 29.47079837 15.93265163 26.39897745 13 22 C12.67 30.91 12.34 39.82 12 49 C8.04 49 4.08 49 0 49 C0 32.83 0 16.66 0 0 Z " fill="#312406" transform="translate(228,176)"/>
<path d="M0 0 C-1.32 0.33 -2.64 0.66 -4 1 C-4 1.66 -4 2.32 -4 3 C-5.98 3 -7.96 3 -10 3 C-10 3.66 -10 4.32 -10 5 C-16.43028541 6.32388229 -22.4294834 7.24794402 -29 7 C-29 7.66 -29 8.32 -29 9 C-29.85464844 9.06058594 -30.70929688 9.12117188 -31.58984375 9.18359375 C-32.69457031 9.26738281 -33.79929687 9.35117187 -34.9375 9.4375 C-36.03964844 9.51871094 -37.14179688 9.59992188 -38.27734375 9.68359375 C-40.91109903 9.70418084 -40.91109903 9.70418084 -42 11 C-54.68856138 12.97290089 -67.83485582 13.21635343 -80.66110229 13.72680664 C-82.03612717 13.78321462 -83.41093494 13.84524104 -84.78543091 13.91333008 C-93.72745513 14.34534495 -101.44630631 13.71426816 -110 11 C-110 10.67 -110 10.34 -110 10 C-109.43941895 10.00666183 -108.87883789 10.01332367 -108.30126953 10.02018738 C-102.32867329 10.08790363 -96.35619014 10.13234767 -90.38330078 10.16479492 C-88.17069046 10.17964358 -85.95810822 10.19992767 -83.74560547 10.22631836 C-63.75727964 10.45831759 -44.13883348 9.08279423 -24.625 4.5 C-23.72007812 4.30019531 -22.81515625 4.10039062 -21.8828125 3.89453125 C-16.54997334 2.69157759 -11.3808271 1.23255546 -6.20458984 -0.52929688 C-3.76473254 -1.05023208 -2.33954579 -0.79207193 0 0 Z " fill="#E0BB34" transform="translate(282,262)"/>
<path d="M0 0 C1.32751785 0.00212242 1.32751785 0.00212242 2.68185425 0.00428772 C5.51449941 0.00989485 8.34706614 0.02244854 11.1796875 0.03515625 C13.09765511 0.04017033 15.01562396 0.0447334 16.93359375 0.04882812 C21.64065532 0.05986659 26.3476581 0.077136 31.0546875 0.09765625 C32.01080299 3.60451583 32.15679924 6.70337606 32.1171875 10.34765625 C32.10816406 11.4253125 32.09914062 12.50296875 32.08984375 13.61328125 C32.07824219 14.433125 32.06664062 15.25296875 32.0546875 16.09765625 C27.27510128 18.48744936 21.39842735 17.09765625 16.0546875 17.09765625 C16.0546875 28.64765625 16.0546875 40.19765625 16.0546875 52.09765625 C15.7246875 52.09765625 15.3946875 52.09765625 15.0546875 52.09765625 C15.0546875 39.88765625 15.0546875 27.67765625 15.0546875 15.09765625 C20.0046875 15.09765625 24.9546875 15.09765625 30.0546875 15.09765625 C29.5596875 9.65265625 29.5596875 9.65265625 29.0546875 4.09765625 C27.34369873 4.06792725 27.34369873 4.06792725 25.59814453 4.03759766 C21.37493427 3.96165058 17.15207351 3.87291697 12.92919922 3.78027344 C11.09984221 3.74193848 9.27040865 3.70709362 7.44091797 3.67578125 C4.81449991 3.6302282 2.18861091 3.57221894 -0.4375 3.51171875 C-1.25838104 3.50016754 -2.07926208 3.48861633 -2.92501831 3.47671509 C-8.71756909 3.32539966 -8.71756909 3.32539966 -10.9453125 1.09765625 C-7.56138242 -0.59430879 -3.72053459 -0.02220924 0 0 Z " fill="#EBC222" transform="translate(192.9453125,171.90234375)"/>
<path d="M0 0 C0.33 0.66 0.66 1.32 1 2 C1.7425 1.649375 2.485 1.29875 3.25 0.9375 C6.1322726 -0.04509293 7.21176345 -0.0326802 10 1 C9.67 2.32 9.34 3.64 9 5 C9.54785156 4.96519531 10.09570312 4.93039063 10.66015625 4.89453125 C15.99311194 4.71243032 20.7137816 5.2874285 25.91821289 6.47973633 C33.70268123 8.14053165 41.28600625 8.47261125 49.24609375 8.51171875 C50.63714615 8.5286274 52.02818386 8.54678554 53.41920471 8.56611633 C57.02421463 8.6129532 60.62916508 8.6431859 64.234375 8.66955566 C67.93566658 8.69970249 71.63675386 8.7461122 75.33789062 8.79101562 C82.55849083 8.8762906 89.77910723 8.94396592 97 9 C97 9.33 97 9.66 97 10 C91.31098109 11.19090691 85.69668116 11.21307162 79.91015625 11.2734375 C78.82524902 11.28587494 77.7403418 11.29831238 76.62255859 11.31112671 C47.57319866 11.57953667 20.95596222 10.35821134 -7 2 C-7 1.67 -7 1.34 -7 1 C-3.535 0.505 -3.535 0.505 0 0 Z " fill="#E6BE30" transform="translate(135,250)"/>
<path d="M0 0 C0.94875 0.825 1.8975 1.65 2.875 2.5 C8.74891762 7.53649556 14.78756731 12.38709021 21 17 C18.69 16.67 16.38 16.34 14 16 C13.67 16.99 13.34 17.98 13 19 C12.34 19 11.68 19 11 19 C13.52788007 21.79872437 15.20411134 23.45773019 19 24 C19 24.66 19 25.32 19 26 C19.66 26 20.32 26 21 26 C21.33 26.66 21.66 27.32 22 28 C24.52495306 28.81047876 27.07354802 29.40749492 29.65234375 30.0234375 C32 31 32 31 33.31640625 33.1015625 C33.54199219 33.72804687 33.76757812 34.35453125 34 35 C20.19249023 31.19103179 8.96442273 22.88810348 -2 14 C-1.67 13.34 -1.34 12.68 -1 12 C2.34252724 11.92572162 4.8035914 11.93453047 8 13 C6.84164381 10.15676208 5.6782639 8.68611113 3.4375 6.5 C1.01667378 4.01710131 0.60751814 3.22189396 0 0 Z " fill="#110803" transform="translate(74,221)"/>
<path d="M0 0 C13.53 0 27.06 0 41 0 C41 3.63 41 7.26 41 11 C36.05 11 31.1 11 26 11 C26 23.21 26 35.42 26 48 C22.37 48 18.74 48 15 48 C15 35.79 15 23.58 15 11 C17 13 17 13 17.13525391 16.34814453 C17.09291058 17.77671903 17.03924547 19.20498586 16.9765625 20.6328125 C16.95153656 21.38464813 16.92651062 22.13648376 16.90072632 22.91110229 C16.81844911 25.31618839 16.72189139 27.72046257 16.625 30.125 C16.5667682 31.75387291 16.50946475 33.3827793 16.453125 35.01171875 C16.31285922 39.00828082 16.15978257 43.00417254 16 47 C18.97 47 21.94 47 25 47 C25 34.79 25 22.58 25 10 C36 9 36 9 38 9 C38.33 6.36 38.66 3.72 39 1 C26.46 1 13.92 1 1 1 C1.33 3.97 1.66 6.94 2 10 C7.445 9.505 7.445 9.505 13 9 C13.33 9.66 13.66 10.32 14 11 C9.38 11 4.76 11 0 11 C0 7.37 0 3.74 0 0 Z " fill="#180700" transform="translate(182,176)"/>
<path d="M0 0 C2.5 1 2.5 1 4 2 C4 4.1875 4 4.1875 3 7 C-0.25555579 9.81438235 -3.47808637 11.89853909 -7.8125 12.1875 C-8.8953125 12.0946875 -8.8953125 12.0946875 -10 12 C-10.99 12.66 -11.98 13.32 -13 14 C-16.03452373 13.62068453 -17.37561021 12.74959319 -20 11 C-16.86543569 7.68631773 -13.89139221 5.33483532 -10 3 C-10 2.34 -10 1.68 -10 1 C-6.83013832 -0.58493084 -3.45967739 -0.2940042 0 0 Z " fill="#0B0704" transform="translate(312,238)"/>
<path d="M0 0 C1.26779297 -0.00515625 2.53558594 -0.0103125 3.84179688 -0.015625 C13.5920672 0.05717702 22.89983517 1.36606009 32.4375 3.3125 C32.4375 3.6425 32.4375 3.9725 32.4375 4.3125 C31.54417969 4.2403125 30.65085937 4.168125 29.73046875 4.09375 C1.94924822 2.08807793 -25.05616861 3.15019086 -52.5625 7.3125 C-54.89556701 7.64769233 -57.22883299 7.98151081 -59.5625 8.3125 C-58.9025 7.85875 -58.2425 7.405 -57.5625 6.9375 C-56.9025 6.40125 -56.2425 5.865 -55.5625 5.3125 C-55.5625 4.6525 -55.5625 3.9925 -55.5625 3.3125 C-37.06110984 1.60300065 -18.59220243 0.00451212 0 0 Z " fill="#E4BF30" transform="translate(201.5625,124.6875)"/>
<path d="M0 0 C0.99 0 1.98 0 3 0 C4.43481543 7.9347022 4.43481543 7.9347022 2.75 12.0625 C2.1725 12.701875 1.595 13.34125 1 14 C0.01 14 -0.98 14 -2 14 C-2.33 16.31 -2.66 18.62 -3 21 C-8.49685535 19.56603774 -8.49685535 19.56603774 -10.5 17.3125 C-11.24538008 13.86511711 -10.13264227 11.27207766 -9 8 C-8.01 8 -7.02 8 -6 8 C-5.34 6.35 -4.68 4.7 -4 3 C-2.68 3.33 -1.36 3.66 0 4 C-0.33 3.01 -0.66 2.02 -1 1 C-0.67 0.67 -0.34 0.34 0 0 Z " fill="#070503" transform="translate(70,172)"/>
<path d="M0 0 C0.33 0 0.66 0 1 0 C1 3.63 1 7.26 1 11 C5.95 11 10.9 11 16 11 C16 23.21 16 35.42 16 48 C19.63 48 23.26 48 27 48 C27 48.99 27 49.98 27 51 C25.22925083 51.02705729 23.45838289 51.04642195 21.6875 51.0625 C20.70136719 51.07410156 19.71523437 51.08570313 18.69921875 51.09765625 C16 51 16 51 13 50 C13.33 37.79 13.66 25.58 14 13 C9.38 13 4.76 13 0 13 C0 8.71 0 4.42 0 0 Z " fill="#CDAC29" transform="translate(181,176)"/>
<path d="M0 0 C0.33 0 0.66 0 1 0 C1 8.58 1 17.16 1 26 C4.63 26 8.26 26 12 26 C12 26.99 12 27.98 12 29 C10.25034642 29.05429959 8.50020213 29.09292823 6.75 29.125 C5.77546875 29.14820313 4.8009375 29.17140625 3.796875 29.1953125 C1 29 1 29 -3 27 C-2.67 21.39 -2.34 15.78 -2 10 C-3.65 11.32 -5.3 12.64 -7 14 C-9.45703125 14.171875 -9.45703125 14.171875 -11.8125 13.75 C-12.60269531 13.62109375 -13.39289063 13.4921875 -14.20703125 13.359375 C-14.79871094 13.24078125 -15.39039063 13.1221875 -16 13 C-16 12.67 -16 12.34 -16 12 C-13.03 12 -10.06 12 -7 12 C-6.6596875 10.9790625 -6.6596875 10.9790625 -6.3125 9.9375 C-4.67589055 6.27461218 -2.55710888 3.0916961 0 0 Z " fill="#D4B12B" transform="translate(164,198)"/>
<path d="M0 0 C-7.24105276 3.32617464 -14.56323651 5.90418455 -22.1875 8.1875 C-23.01797852 8.43709473 -23.84845703 8.68668945 -24.70410156 8.94384766 C-32.46553043 11.22490176 -39.86384387 13.34621941 -48 13 C-48 12.67 -48 12.34 -48 12 C-44.7 11.67 -41.4 11.34 -38 11 C-38 9.35 -38 7.7 -38 6 C-36.12743583 5.49095343 -34.25180659 4.99317545 -32.375 4.5 C-30.80878906 4.08234375 -30.80878906 4.08234375 -29.2109375 3.65625 C-26.03812372 3.00779171 -23.22654221 2.92603915 -20 3 C-19.34 2.835 -18.68 2.67 -18 2.5 C-16 2 -16 2 -13.1875 2.125 C-10.20147009 2.00790079 -8.9237214 1.65496821 -6.3125 0.4375 C-3 -1 -3 -1 0 0 Z " fill="#F2C617" transform="translate(294,244)"/>
<path d="M0 0 C3.63 0 7.26 0 11 0 C11 16.17 11 32.34 11 49 C7.04 49 3.08 49 -1 49 C-1.66 47.35 -2.32 45.7 -3 44 C-2.01 44 -1.02 44 0 44 C0 44.99 0 45.98 0 47 C3.3 47 6.6 47 10 47 C10 31.82 10 16.64 10 1 C7.03 1 4.06 1 1 1 C1.0407666 1.72590332 1.0815332 2.45180664 1.12353516 3.19970703 C1.30258381 6.50761772 1.46395057 9.81616617 1.625 13.125 C1.68945312 14.26710937 1.75390625 15.40921875 1.8203125 16.5859375 C1.871875 17.69453125 1.9234375 18.803125 1.9765625 19.9453125 C2.02893066 20.96125488 2.08129883 21.97719727 2.13525391 23.02392578 C1.98523734 26.32483186 1.17450289 28.92544806 0 32 C-1.32 31.67 -2.64 31.34 -4 31 C-3.67 29.35 -3.34 27.7 -3 26 C-2.34 26.33 -1.68 26.66 -1 27 C-0.67 18.09 -0.34 9.18 0 0 Z " fill="#160602" transform="translate(261,176)"/>
<path d="M0 0 C0.33 0.99 0.66 1.98 1 3 C0.360625 3.598125 -0.27875 4.19625 -0.9375 4.8125 C-3.20310389 6.90810337 -3.20310389 6.90810337 -4 10 C-1.03 10.495 -1.03 10.495 2 11 C-0.89037392 14.0599968 -3.91085958 16.430297 -7.375 18.8125 C-12.03855187 22.14004103 -15.51120615 25.47399717 -19 30 C-19.66 29.34 -20.32 28.68 -21 28 C-20.01 24.535 -20.01 24.535 -19 21 C-18.67 21.66 -18.34 22.32 -18 23 C-17.34 23 -16.68 23 -16 23 C-16.33 22.01 -16.66 21.02 -17 20 C-16.319375 19.95875 -15.63875 19.9175 -14.9375 19.875 C-10.74484213 18.62612319 -8.1407561 15.95973269 -5 13 C-5.99 13 -6.98 13 -8 13 C-8.33 11.68 -8.66 10.36 -9 9 C-9.66 9 -10.32 9 -11 9 C-9.55613418 5.28720216 -7.87763608 4.0513557 -4.375 2.25 C-3.14910156 1.60804688 -3.14910156 1.60804688 -1.8984375 0.953125 C-0.95871094 0.48132813 -0.95871094 0.48132813 0 0 Z " fill="#130C04" transform="translate(94,150)"/>
<path d="M0 0 C-7.40580493 11.03047707 -18.89056749 19.5801288 -31 25 C-31.99 24.67 -32.98 24.34 -34 24 C-33.01 22.515 -33.01 22.515 -32 21 C-31.01 21 -30.02 21 -29 21 C-28.67 20.01 -28.34 19.02 -28 18 C-25.29120665 16.64560332 -22.99066732 16.93498549 -20 17 C-20.33 16.01 -20.66 15.02 -21 14 C-20 13 -20 13 -16.9375 12.9375 C-15.4834375 12.9684375 -15.4834375 12.9684375 -14 13 C-13.67 11.35 -13.34 9.7 -13 8 C-12.01 8 -11.02 8 -10 8 C-10 7.34 -10 6.68 -10 6 C-9.34 6 -8.68 6 -8 6 C-8 4.35 -8 2.7 -8 1 C-2.25 -1.125 -2.25 -1.125 0 0 Z " fill="#EDC224" transform="translate(328,218)"/>
<path d="M0 0 C0.33 0 0.66 0 1 0 C1 16.17 1 32.34 1 49 C4.96 49 8.92 49 13 49 C13 49.66 13 50.32 13 51 C11.08364783 51.05423638 9.16685075 51.09289963 7.25 51.125 C6.18265625 51.14820313 5.1153125 51.17140625 4.015625 51.1953125 C1.07529894 51.00487687 -0.52361878 50.52670104 -3 49 C-2.67 48.34 -2.34 47.68 -2 47 C-1.85649053 44.86474189 -1.77337489 42.72531551 -1.71875 40.5859375 C-1.66352173 38.61765991 -1.66352173 38.61765991 -1.60717773 36.60961914 C-1.58968475 35.91675812 -1.57219177 35.22389709 -1.5541687 34.51004028 C-1.46438469 30.97123508 -1.35971097 27.43288886 -1.25390625 23.89453125 C-1.23344742 23.20433395 -1.21298859 22.51413666 -1.19190979 21.80302429 C-0.96822171 14.52166871 -0.55328677 7.26336043 0 0 Z " fill="#F3CA20" transform="translate(227,176)"/>
<path d="M0 0 C0.99 0 1.98 0 3 0 C3 15.84 3 31.68 3 48 C2.67 48 2.34 48 2 48 C1.67 42.72 1.34 37.44 1 32 C0.67 32 0.34 32 0 32 C0 21.44 0 10.88 0 0 Z " fill="#F0C620" transform="translate(125,176)"/>
<path d="M0 0 C3.96 0 7.92 0 12 0 C15 4 15 4 15 6 C14.01 6 13.02 6 12 6 C11.67 4.68 11.34 3.36 11 2 C7.7 1.67 4.4 1.34 1 1 C1 16.18 1 31.36 1 47 C3.97 47 6.94 47 10 47 C9.67 39.08 9.34 31.16 9 23 C9.66 22.67 10.32 22.34 11 22 C11 30.58 11 39.16 11 48 C7.37 48 3.74 48 0 48 C0 32.16 0 16.32 0 0 Z " fill="#150500" transform="translate(128,176)"/>
<path d="M0 0 C3 1 3 1 4.1875 3.0625 C4.455625 3.701875 4.72375 4.34125 5 5 C5.33 5 5.66 5 6 5 C6.22786458 7.05078125 6.45572917 9.1015625 6.68359375 11.15234375 C6.81886614 13.01140229 6.81886614 13.01140229 8 14 C8.12798061 16.72033201 8.18522499 19.4040837 8.1875 22.125 C8.19974609 22.87265625 8.21199219 23.6203125 8.22460938 24.390625 C8.23746182 29.30882635 7.56530328 33.33502501 6 38 C5.34 38 4.68 38 4 38 C3.01 40.475 3.01 40.475 2 43 C1.34 43 0.68 43 0 43 C0.19335938 42.43152344 0.38671875 41.86304688 0.5859375 41.27734375 C1.13131792 39.66010181 1.66856703 38.04010316 2.19921875 36.41796875 C2.82868314 34.51729334 3.50036013 32.63059333 4.1875 30.75 C6.36837401 20.68442763 5.05151891 12.339646 1 3 C0.67 2.01 0.34 1.02 0 0 Z " fill="#E7BF2B" transform="translate(339,179)"/>
<path d="M0 0 C-1.32 0.33 -2.64 0.66 -4 1 C-4 1.66 -4 2.32 -4 3 C-5.98 3 -7.96 3 -10 3 C-10 3.66 -10 4.32 -10 5 C-16.43028541 6.32388229 -22.4294834 7.24794402 -29 7 C-29 7.66 -29 8.32 -29 9 C-37.35748222 9.84327749 -45.60197746 10.12190678 -54 10 C-54 9.67 -54 9.34 -54 9 C-53.03964844 8.91363281 -52.07929688 8.82726562 -51.08984375 8.73828125 C-42.28922619 7.86532117 -33.70472762 6.44686381 -25.0625 4.5625 C-23.64408813 4.25469604 -23.64408813 4.25469604 -22.19702148 3.94067383 C-16.75121755 2.72079466 -11.47231039 1.27200045 -6.18920898 -0.53149414 C-3.75776368 -1.05184025 -2.33215475 -0.78845089 0 0 Z " fill="#D9B32E" transform="translate(282,262)"/>
<path d="M0 0 C1.65322266 0.01740234 1.65322266 0.01740234 3.33984375 0.03515625 C4.99693359 0.04869141 4.99693359 0.04869141 6.6875 0.0625 C7.54214844 0.07410156 8.39679688 0.08570313 9.27734375 0.09765625 C9.27734375 0.42765625 9.27734375 0.75765625 9.27734375 1.09765625 C5.64734375 1.09765625 2.01734375 1.09765625 -1.72265625 1.09765625 C-1.72265625 10.33765625 -1.72265625 19.57765625 -1.72265625 29.09765625 C-7.82265625 22.99765625 -7.82265625 22.99765625 -9.72265625 20.09765625 C-9.72265625 19.43765625 -9.72265625 18.77765625 -9.72265625 18.09765625 C-8.07265625 18.42765625 -6.42265625 18.75765625 -4.72265625 19.09765625 C-4.66207031 17.80988281 -4.60148437 16.52210938 -4.5390625 15.1953125 C-4.45467378 13.51691466 -4.37002495 11.83852989 -4.28515625 10.16015625 C-4.22618164 8.88495117 -4.22618164 8.88495117 -4.16601562 7.58398438 C-4.12412109 6.77509766 -4.08222656 5.96621094 -4.0390625 5.1328125 C-3.98407593 4.00951538 -3.98407593 4.00951538 -3.92797852 2.86352539 C-3.58497559 -0.0864629 -3.01073331 0.107989 0 0 Z " fill="#C6A42C" transform="translate(262.72265625,174.90234375)"/>
<path d="M0 0 C6.36799252 -0.02552104 12.73597166 -0.04293821 19.10400391 -0.05493164 C21.26676934 -0.0599358 23.42953143 -0.06674117 25.59228516 -0.07543945 C28.7151777 -0.08767762 31.83802521 -0.09326764 34.9609375 -0.09765625 C35.91551849 -0.10281754 36.87009949 -0.10797882 37.85360718 -0.11329651 C47.93312183 -0.11412385 57.44287835 0.66612036 67 4 C67 4.33 67 4.66 67 5 C60.93610954 4.51180543 54.93011133 3.85282347 48.90625 3 C38.96416632 1.690865 29.01430038 1.54865839 19 1.375 C17.14581751 1.33669581 15.29165044 1.29763756 13.4375 1.2578125 C8.95846282 1.16321303 4.47934343 1.07870846 0 1 C0 0.67 0 0.34 0 0 Z " fill="#2C1B00" transform="translate(184,138)"/>
<path d="M0 0 C5.9790506 5.64688112 10.68037945 11.4125051 11.265625 19.8125 C11.27089229 21.20833311 11.26545119 22.60424247 11.25 24 C11.25773437 24.69867188 11.26546875 25.39734375 11.2734375 26.1171875 C11.25808241 30.18628563 10.8011034 33.34061531 9 37 C8.67 37 8.34 37 8 37 C7.98018066 36.43603516 7.96036133 35.87207031 7.93994141 35.29101562 C7.84368189 32.69360426 7.73441948 30.09688897 7.625 27.5 C7.5940625 26.613125 7.563125 25.72625 7.53125 24.8125 C7.08388832 14.30202605 7.08388832 14.30202605 2.375 5.125 C0 2 0 2 0 0 Z " fill="#E4BC2C" transform="translate(322,176)"/>
<path d="M0 0 C7.67494218 0.17159424 14.7680003 1.50497199 22.1875 3.375 C23.01797852 3.58406982 23.84845703 3.79313965 24.70410156 4.00854492 C30.22010923 5.44111092 35.61708909 7.13042787 41 9 C41 9.33 41 9.66 41 10 C35.47032059 10.71033431 30.50016964 11.30267176 25 10 C25 9.01 25 8.02 25 7 C24.40832031 6.87882813 23.81664062 6.75765625 23.20703125 6.6328125 C16.49032752 5.2083892 16.49032752 5.2083892 13.5 3.9375 C10.33978075 2.75241778 7.34118947 2.56915559 3.98828125 2.34375 C2 2 2 2 0 0 Z " fill="#E7C325" transform="translate(240,142)"/>
<path d="M0 0 C0.515625 0.268125 1.03125 0.53625 1.5625 0.8125 C4.16624706 2.12938801 4.16624706 2.12938801 7.6875 3.375 C8.780625 3.91125 9.87375 4.4475 11 5 C11.70703125 7.1015625 11.70703125 7.1015625 12 9 C13.258125 9.309375 14.51625 9.61875 15.8125 9.9375 C18.26177394 10.53978048 20.60265923 11.20088641 23 12 C23.68486725 13.32407669 24.34870203 14.65909241 25 16 C26.29470975 17.37086915 27.62150897 18.71340837 29 20 C17.80962085 16.66633915 8.05402414 9.30855312 0 1 C0 0.67 0 0.34 0 0 Z " fill="#F1C817" transform="translate(77,223)"/>
<path d="M0 0 C-1.67285091 5.01855272 -6.02873164 7.96743086 -10.625 10.375 C-13.17997202 11.04736106 -15.36917676 11.15033276 -18 11 C-18.268125 11.61875 -18.53625 12.2375 -18.8125 12.875 C-20 15 -20 15 -23 17 C-25.1875 16.625 -25.1875 16.625 -27 16 C-6.86394558 0 -6.86394558 0 0 0 Z " fill="#E6BF27" transform="translate(108,156)"/>
<path d="M0 0 C0.66 0 1.32 0 2 0 C2 0.99 2 1.98 2 3 C-0.31 3.66 -2.62 4.32 -5 5 C-4.67 6.32 -4.34 7.64 -4 9 C-6.3125 10.5625 -6.3125 10.5625 -9 12 C-9.99 11.67 -10.98 11.34 -12 11 C-14.69607984 11.70095992 -14.69607984 11.70095992 -18 13 C-19.95798437 13.70929737 -21.91634134 14.41756673 -23.875 15.125 C-25.58362002 15.74921585 -27.29204966 16.37395415 -29 17 C-29.66 16.34 -30.32 15.68 -31 15 C-29.92363281 14.57589844 -28.84726562 14.15179688 -27.73828125 13.71484375 C-12.86913693 8.47972196 -12.86913693 8.47972196 0 0 Z " fill="#F7CE0B" transform="translate(315,244)"/>
<path d="M0 0 C2.63564456 2.63564456 4.31830856 4.72070169 6 8 C5.67 8.66 5.34 9.32 5 10 C4.34 9.67 3.68 9.34 3 9 C2.67 15.27 2.34 21.54 2 28 C-2.29 28 -6.58 28 -11 28 C-11 27.67 -11 27.34 -11 27 C-7.37 27 -3.74 27 0 27 C0 18.09 0 9.18 0 0 Z " fill="#B29323" transform="translate(139,197)"/>
<path d="M0 0 C3.82319853 1.47749107 7.54980596 3.13214093 11.28369141 4.81835938 C18.7568384 8.19101633 26.21707564 11.39426321 34 14 C34 14.33 34 14.66 34 15 C31.69 15 29.38 15 27 15 C27 14.34 27 13.68 27 13 C26.278125 13.061875 25.55625 13.12375 24.8125 13.1875 C21.38198441 12.95879896 19.94520135 11.76712081 17 10 C14.38662756 9.16828709 11.76230771 8.44072258 9.109375 7.74609375 C7 7 7 7 6 5 C5.34 5 4.68 5 4 5 C3.34 5.66 2.68 6.32 2 7 C0.5393715 4.35261084 0 3.10551666 0 0 Z " fill="#EEC528" transform="translate(90,248)"/>
<path d="M0 0 C0.66 0 1.32 0 2 0 C1.67 1.0725 1.34 2.145 1 3.25 C-1.84091116 14.90185303 0.76476138 23.62385138 6 34 C4.125 34.625 4.125 34.625 2 35 C-0.77848223 32.22151777 -0.48656115 29.85079137 -1 26 C-1.33773437 25.07445312 -1.67546875 24.14890625 -2.0234375 23.1953125 C-3.10201774 19.66619794 -3.20008872 16.80434747 -3.125 13.125 C-3.10695313 11.97257813 -3.08890625 10.82015625 -3.0703125 9.6328125 C-3.04710938 8.76398438 -3.02390625 7.89515625 -3 7 C-2.34 7 -1.68 7 -1 7 C-0.67 4.69 -0.34 2.38 0 0 Z " fill="#1D0C00" transform="translate(68,186)"/>
<path d="M0 0 C-0.96099609 0.8353125 -0.96099609 0.8353125 -1.94140625 1.6875 C-8.6851922 7.63730817 -14.65330243 13.76998807 -20 21 C-20.33 19.02 -20.66 17.04 -21 15 C-19.68 15 -18.36 15 -17 15 C-17 14.01 -17 13.02 -17 12 C-16.34 12 -15.68 12 -15 12 C-14.566875 10.2984375 -14.566875 10.2984375 -14.125 8.5625 C-13.75375 7.386875 -13.3825 6.21125 -13 5 C-12.34 4.67 -11.68 4.34 -11 4 C-10.34 4.33 -9.68 4.66 -9 5 C-9 4.01 -9 3.02 -9 2 C-5.62638617 -0.62392187 -4.03085709 -1.27471549 0 0 Z " fill="#E5BF22" transform="translate(80,160)"/>
<path d="M0 0 C2.97 0 5.94 0 9 0 C6.63773172 1.57484552 4.65628572 2.6643484 2.0859375 3.76953125 C1.32861328 4.09888672 0.57128906 4.42824219 -0.20898438 4.76757812 C-1.00626953 5.11240234 -1.80355469 5.45722656 -2.625 5.8125 C-8.41333686 8.3405803 -14.05056718 10.91938973 -19.46875 14.1875 C-21 15 -21 15 -23 15 C-23 14.34 -23 13.68 -23 13 C-22.34 13 -21.68 13 -21 13 C-21 12.34 -21 11.68 -21 11 C-20.01 11 -19.02 11 -18 11 C-18 10.01 -18 9.02 -18 8 C-17.04287109 7.81824219 -17.04287109 7.81824219 -16.06640625 7.6328125 C-15.24011719 7.46523437 -14.41382812 7.29765625 -13.5625 7.125 C-12.73878906 6.96257812 -11.91507813 6.80015625 -11.06640625 6.6328125 C-10.38449219 6.42398438 -9.70257813 6.21515625 -9 6 C-8.67 5.34 -8.34 4.68 -8 4 C-5.66666667 3.33333333 -3.33333333 2.66666667 -1 2 C-0.67 1.34 -0.34 0.68 0 0 Z " fill="#DEB82F" transform="translate(108,140)"/>
<path d="M0 0 C5.41402559 0.57395524 9.66656824 2.47223559 14.5 4.8125 C15.60021484 5.32780273 15.60021484 5.32780273 16.72265625 5.85351562 C21.08003934 7.93087268 25.05291948 10.22080564 29 13 C26.50907189 14.24546405 25.58919267 13.7767578 23 13 C23 12.34 23 11.68 23 11 C22.236875 10.87625 21.47375 10.7525 20.6875 10.625 C18 10 18 10 15 8 C12.37468476 7.83286431 12.37468476 7.83286431 10 8 C10 7.34 10 6.68 10 6 C9.401875 6.226875 8.80375 6.45375 8.1875 6.6875 C7.465625 6.790625 6.74375 6.89375 6 7 C3.51418933 5.11078389 1.82359113 2.51829251 0 0 Z " fill="#EDC41E" transform="translate(281,152)"/>
<path d="M0 0 C2.46800047 1.15173355 4.04783565 2.04783565 6 4 C6.61875 4.28875 7.2375 4.5775 7.875 4.875 C10.4320033 6.22870763 12.10060625 7.82926429 14 10 C14 10.66 14 11.32 14 12 C6.28267891 9.47191206 -1.35945902 6.74972528 -9 4 C-9 3.67 -9 3.34 -9 3 C-3.25 2.875 -3.25 2.875 -1 4 C-0.67 2.68 -0.34 1.36 0 0 Z " fill="#E6BF24" transform="translate(284,134)"/>
<path d="M0 0 C4.2773553 0.54087848 8.3610434 1.28584719 12.54516602 2.35839844 C23.56479172 5.1803188 34.72086876 6.63397713 46 8 C46 8.33 46 8.66 46 9 C38.65944564 9.45457561 31.6185036 8.65237305 24.375 7.5625 C23.02293457 7.360802 23.02293457 7.360802 21.64355469 7.1550293 C15.13412505 6.13412505 15.13412505 6.13412505 14 5 C12.31391034 4.92794489 10.62499341 4.91613932 8.9375 4.9375 C8.01839844 4.94652344 7.09929687 4.95554687 6.15234375 4.96484375 C5.44207031 4.97644531 4.73179687 4.98804688 4 5 C4 4.01 4 3.02 4 2 C2.68 1.67 1.36 1.34 0 1 C0 0.67 0 0.34 0 0 Z " fill="#E2B92F" transform="translate(124,263)"/>
<path d="M0 0 C13.44420601 0.76824034 13.44420601 0.76824034 20 3 C22.99513701 3.88675899 25.62937051 4.10839161 28.75 4.0625 C29.94882812 4.04896484 29.94882812 4.04896484 31.171875 4.03515625 C32.07679688 4.01775391 32.07679688 4.01775391 33 4 C32.67 4.99 32.34 5.98 32 7 C34.475 7.495 34.475 7.495 37 8 C33.78011577 9.04613045 31.73119418 8.92225722 28.47265625 8.07421875 C27.60342529 7.85531982 26.73419434 7.6364209 25.83862305 7.41088867 C24.92250244 7.17217041 24.00638184 6.93345215 23.0625 6.6875 C15.06340546 4.68341762 7.19130785 3.01821452 -1 2 C-0.67 1.34 -0.34 0.68 0 0 Z " fill="#D9B32C" transform="translate(238,128)"/>
<path d="M0 0 C2.97 0.99 5.94 1.98 9 3 C9 3.66 9 4.32 9 5 C10.258125 4.938125 11.51625 4.87625 12.8125 4.8125 C16.72007596 4.81940384 16.72007596 4.81940384 18.9375 6.25 C20.1040704 8.17141008 20.5217131 9.81354561 21 12 C21.99 13.485 21.99 13.485 23 15 C18.21218367 12.75170669 13.84812614 9.7973343 9.38671875 6.97265625 C5.97456064 4.98518238 2.65324098 3.47703913 -1 2 C-0.67 1.34 -0.34 0.68 0 0 Z " fill="#E3BD29" transform="translate(299,145)"/>
<path d="M0 0 C5 2 5 2 10 4 C10 4.66 10 5.32 10 6 C10.66 6 11.32 6 12 6 C12.33 6.66 12.66 7.32 13 8 C15.52495306 8.81047876 18.07354802 9.40749492 20.65234375 10.0234375 C23 11 23 11 24.31640625 13.1015625 C24.54199219 13.72804687 24.76757812 14.35453125 25 15 C19.05872091 13.36102646 13.9514954 11.04134178 8.625 8 C8.01833496 7.65582031 7.41166992 7.31164062 6.78662109 6.95703125 C3.84463036 5.24066448 1.24436976 3.5834472 -1 1 C-0.67 0.67 -0.34 0.34 0 0 Z " fill="#241402" transform="translate(83,241)"/>
<path d="M0 0 C0.33 0 0.66 0 1 0 C1 10.89 1 21.78 1 33 C-2.96 33 -6.92 33 -11 33 C-11.66 31.35 -12.32 29.7 -13 28 C-12.01 28 -11.02 28 -10 28 C-10 28.99 -10 29.98 -10 31 C-6.7 31 -3.4 31 0 31 C0 20.77 0 10.54 0 0 Z " fill="#140600" transform="translate(271,192)"/>
<path d="M0 0 C0.66 0 1.32 0 2 0 C1.79503906 0.66386719 1.59007812 1.32773438 1.37890625 2.01171875 C0.97478516 3.33623047 0.97478516 3.33623047 0.5625 4.6875 C0.29566406 5.55761719 0.02882813 6.42773438 -0.24609375 7.32421875 C-2.99775761 17.09048687 -1.86442794 24.44201247 1 34 C1.34173542 35.33120464 1.67843306 36.66378011 2 38 C1.01 37.67 0.02 37.34 -1 37 C-1 35.68 -1 34.36 -1 33 C-1.66 33 -2.32 33 -3 33 C-4.70609225 21.91040035 -4.5221058 11.74880992 -1 1 C-0.67 0.67 -0.34 0.34 0 0 Z " fill="#DFB72D" transform="translate(58,181)"/>
<path d="M0 0 C2.26979665 -0.10794277 4.54105196 -0.18556176 6.8125 -0.25 C8.07707031 -0.29640625 9.34164062 -0.3428125 10.64453125 -0.390625 C14 0 14 0 15.76171875 1.953125 C16.17035156 2.62859375 16.57898438 3.3040625 17 4 C17.99 4.33 18.98 4.66 20 5 C20.94921875 7.06640625 20.94921875 7.06640625 21.6875 9.5625 C21.93886719 10.38878906 22.19023437 11.21507812 22.44921875 12.06640625 C22.63097656 12.70449219 22.81273437 13.34257812 23 14 C23.66 14 24.32 14 25 14 C24.67 15.32 24.34 16.64 24 18 C23.54898926 17.28082397 23.54898926 17.28082397 23.08886719 16.54711914 C17.35347262 6.89659148 17.35347262 6.89659148 8.53125 0.71484375 C5.57630329 0.5213651 2.92242732 0.54401843 0 1 C0 0.67 0 0.34 0 0 Z " fill="#DCB222" transform="translate(228,175)"/>
<path d="M0 0 C0.9075 0.309375 1.815 0.61875 2.75 0.9375 C5.16563338 1.7272263 7.52780285 2.42949297 10 3 C10 4.32 10 5.64 10 7 C10.66 7 11.32 7 12 7 C14.35341007 10.47895402 16.15909274 14.23052324 18 18 C17.34 18.33 16.68 18.66 16 19 C15.1646875 17.700625 15.1646875 17.700625 14.3125 16.375 C10.57954863 10.81472977 6.53888536 6.41005399 1.35546875 2.19921875 C0.90816406 1.80347656 0.46085937 1.40773437 0 1 C0 0.67 0 0.34 0 0 Z " fill="#E5BE1E" transform="translate(322,160)"/>
<path d="M0 0 C11.88 0.66 23.76 1.32 36 2 C36 2.33 36 2.66 36 3 C9.82345757 4.81305261 9.82345757 4.81305261 0 1 C0 0.67 0 0.34 0 0 Z " fill="#EFC72A" transform="translate(172,272)"/>
<path d="M0 0 C0 0.33 0 0.66 0 1 C-8.18220858 4.21443909 -16.32224704 5.09495828 -25 6 C-24.34 5.54625 -23.68 5.0925 -23 4.625 C-22.34 4.08875 -21.68 3.5525 -21 3 C-21 2.34 -21 1.68 -21 1 C-18.81274749 0.83011631 -16.62518299 0.66424731 -14.4375 0.5 C-12.61025391 0.36078125 -12.61025391 0.36078125 -10.74609375 0.21875 C-7.15365784 0.00897272 -3.59752457 -0.03704015 0 0 Z " fill="#EDC121" transform="translate(167,127)"/>
<path d="M0 0 C1.65 0 3.3 0 5 0 C5 0.66 5 1.32 5 2 C6.32 2 7.64 2 9 2 C9 1.34 9 0.68 9 0 C9.99 0.33 10.98 0.66 12 1 C11.21718695 2.33855056 10.42348123 3.67073644 9.625 5 C9.18414062 5.7425 8.74328125 6.485 8.2890625 7.25 C7.65097656 8.11625 7.65097656 8.11625 7 9 C6.34 9 5.68 9 5 9 C3.35 6.03 1.7 3.06 0 0 Z " fill="#E2BC23" transform="translate(146,186)"/>
<path d="M0 0 C0 6.93 0 13.86 0 21 C-0.66 20.67 -1.32 20.34 -2 20 C-1.67 14.72 -1.34 9.44 -1 4 C-2.65 5.32 -4.3 6.64 -6 8 C-8.45703125 8.171875 -8.45703125 8.171875 -10.8125 7.75 C-11.60269531 7.62109375 -12.39289063 7.4921875 -13.20703125 7.359375 C-13.79871094 7.24078125 -14.39039063 7.1221875 -15 7 C-15 6.67 -15 6.34 -15 6 C-12.03 6 -9.06 6 -6 6 C-5.67 5.01 -5.34 4.02 -5 3 C-1.44444444 0 -1.44444444 0 0 0 Z " fill="#E3BB11" transform="translate(163,204)"/>
<path d="M0 0 C-2.14272323 3.1950666 -4.30799734 6.24351824 -7 9 C-10.4375 9.5625 -10.4375 9.5625 -13 9 C-12.01 8.67 -11.02 8.34 -10 8 C-10 7.34 -10 6.68 -10 6 C-9.34 6 -8.68 6 -8 6 C-8 4.35 -8 2.7 -8 1 C-2.25 -1.125 -2.25 -1.125 0 0 Z " fill="#EBC61E" transform="translate(328,218)"/>
<path d="M0 0 C0.6875 1.75 0.6875 1.75 1 4 C-0.4375 6.125 -0.4375 6.125 -2 8 C-2 8.66 -2 9.32 -2 10 C-3.32 9.67 -4.64 9.34 -6 9 C-6.66 10.65 -7.32 12.3 -8 14 C-8.99 13.67 -9.98 13.34 -11 13 C-9.92027262 11.5805831 -8.83604137 10.1645917 -7.75 8.75 C-6.84507813 7.56664062 -6.84507813 7.56664062 -5.921875 6.359375 C-4.06817005 4.08368843 -2.11101046 2.03628442 0 0 Z " fill="#100506" transform="translate(72,166)"/>
<path d="M0 0 C0 0.66 0 1.32 0 2 C-19.8 1.505 -19.8 1.505 -40 1 C-40 0.67 -40 0.34 -40 0 C-34.78575406 -0.16763742 -29.57135652 -0.32819469 -24.35668945 -0.48217773 C-22.58254115 -0.53556608 -20.80845009 -0.59089298 -19.03442383 -0.64819336 C-16.48531435 -0.73019269 -13.93608072 -0.80523144 -11.38671875 -0.87890625 C-10.19594978 -0.91945885 -10.19594978 -0.91945885 -8.98112488 -0.96083069 C-5.69363284 -1.05004432 -3.14650219 -1.04883406 0 0 Z " fill="#F8CA1C" transform="translate(224,174)"/>
<path d="M0 0 C4.6875 0.78125 4.6875 0.78125 9.375 1.5625 C10.674375 1.7790625 10.674375 1.7790625 12 2 C12 2.66 12 3.32 12 4 C15.3 4.66 18.6 5.32 22 6 C22 6.66 22 7.32 22 8 C14.7380517 7.49335244 5.21646492 5.21646492 0 0 Z " fill="#DABA2B" transform="translate(106,243)"/>
<path d="M0 0 C0.99 0.33 1.98 0.66 3 1 C3.33 3.31 3.66 5.62 4 8 C1.69 8 -0.62 8 -3 8 C-3.33 6.35 -3.66 4.7 -4 3 C-3.01 3 -2.02 3 -1 3 C-0.67 2.01 -0.34 1.02 0 0 Z " fill="#020101" transform="translate(93,153)"/>
<path d="M0 0 C-1.32 0.33 -2.64 0.66 -4 1 C-4 1.66 -4 2.32 -4 3 C-5.98 3 -7.96 3 -10 3 C-10 3.66 -10 4.32 -10 5 C-12.64 5 -15.28 5 -18 5 C-18 4.34 -18 3.68 -18 3 C-15.75376301 2.30030318 -13.50283586 1.61564957 -11.25 0.9375 C-9.99703125 0.55464844 -8.7440625 0.17179687 -7.453125 -0.22265625 C-4.3261992 -0.92656828 -2.90533954 -1.16653785 0 0 Z " fill="#DFB929" transform="translate(282,262)"/>
<path d="M0 0 C4.95 1.32 9.9 2.64 15 4 C15 4.33 15 4.66 15 5 C12.69 5 10.38 5 8 5 C8.33 6.32 8.66 7.64 9 9 C7.68 9 6.36 9 5 9 C4.9175 8.401875 4.835 7.80375 4.75 7.1875 C3.79451097 4.400657 2.3549152 3.67123014 0 2 C0 1.34 0 0.68 0 0 Z " fill="#1A1001" transform="translate(123,250)"/>
<path d="M0 0 C0.66 0.66 1.32 1.32 2 2 C1.195625 2.12375 0.39125 2.2475 -0.4375 2.375 C-1.7059375 2.684375 -1.7059375 2.684375 -3 3 C-3.33 3.66 -3.66 4.32 -4 5 C-5.051875 4.7525 -5.051875 4.7525 -6.125 4.5 C-9.13888194 3.97584662 -11.94713625 3.92900317 -15 4 C-12.60939149 2.40626099 -10.69171821 1.34702924 -8.0625 0.3125 C-7.39347656 0.04050781 -6.72445312 -0.23148438 -6.03515625 -0.51171875 C-3.61814117 -1.0916168 -2.3118575 -0.8735829 0 0 Z " fill="#1F1103" transform="translate(129,138)"/>
<path d="M0 0 C0 0.66 0 1.32 0 2 C-15.01231917 9.00574895 -15.01231917 9.00574895 -22 7 C-19.41767086 6.01811439 -16.83421317 5.03940411 -14.25 4.0625 C-13.15558594 3.64581055 -13.15558594 3.64581055 -12.0390625 3.22070312 C-11.33007812 2.95322266 -10.62109375 2.68574219 -9.890625 2.41015625 C-8.91657715 2.04096069 -8.91657715 2.04096069 -7.92285156 1.66430664 C-5.26563878 0.74629293 -2.82193838 0 0 0 Z " fill="#D3B528" transform="translate(130,148)"/>
<path d="M0 0 C1 3 1 3 0 6 C-1.63671875 7.6484375 -1.63671875 7.6484375 -3.6875 9.375 C-4.76064453 10.28572266 -4.76064453 10.28572266 -5.85546875 11.21484375 C-6.91701172 12.09849609 -6.91701172 12.09849609 -8 13 C-8.92232422 13.77537109 -8.92232422 13.77537109 -9.86328125 14.56640625 C-11.23698821 15.7171727 -12.61768397 16.85958928 -14 18 C-14.66 17.67 -15.32 17.34 -16 17 C-15.34773438 16.443125 -14.69546875 15.88625 -14.0234375 15.3125 C-8.63038449 10.60352156 -3.99126642 5.95445031 0 0 Z " fill="#E3BE35" transform="translate(338,222)"/>
<path d="M0 0 C4.29 0 8.58 0 13 0 C13.33 0.99 13.66 1.98 14 3 C15.65 2.67 17.3 2.34 19 2 C18.67 4.64 18.34 7.28 18 10 C16.02720232 8.21508781 14.93968523 6.87318434 13.78125 4.4375 C12.19376866 1.71447003 12.19376866 1.71447003 9.08203125 1.29296875 C8.00308594 1.25816406 6.92414063 1.22335938 5.8125 1.1875 C4.72582031 1.13980469 3.63914063 1.09210938 2.51953125 1.04296875 C1.27236328 1.02169922 1.27236328 1.02169922 0 1 C0 0.67 0 0.34 0 0 Z " fill="#DDB51E" transform="translate(128,175)"/>
<path d="M0 0 C1.89668064 2.84502097 3.23263478 5.57299885 4.625 8.6875 C5.07101563 9.68136719 5.51703125 10.67523438 5.9765625 11.69921875 C6.31429687 12.45847656 6.65203125 13.21773437 7 14 C5.125 14.625 5.125 14.625 3 15 C0.22957891 12.22957891 0.60203894 10.23466195 0.375 6.375 C0.30023438 5.18648437 0.22546875 3.99796875 0.1484375 2.7734375 C0.09945312 1.85820312 0.05046875 0.94296875 0 0 Z " fill="#261902" transform="translate(67,206)"/>
<path d="M0 0 C1.32 1.65 2.64 3.3 4 5 C3.34 5.66 2.68 6.32 2 7 C1.62995706 9.22658154 1.62995706 9.22658154 1.5859375 11.7890625 C1.54726562 12.73007813 1.50859375 13.67109375 1.46875 14.640625 C1.4378125 15.62546875 1.406875 16.6103125 1.375 17.625 C1.33632812 18.61757812 1.29765625 19.61015625 1.2578125 20.6328125 C1.1633686 23.08835385 1.07780125 25.5438841 1 28 C0.67 28 0.34 28 0 28 C0 18.76 0 9.52 0 0 Z " fill="#EDC936" transform="translate(240,196)"/>
<path d="M0 0 C3.26584771 3.26584771 2.85354675 7.53317576 3 12 C2.82187913 14.4046318 2.46405851 16.62814541 2 19 C-0.52775351 15.20836973 -0.22443035 12.19125969 -0.125 7.8125 C-0.11597656 7.06291016 -0.10695313 6.31332031 -0.09765625 5.54101562 C-0.07412578 3.69387346 -0.03825561 1.84689588 0 0 Z " fill="#FAC90F" transform="translate(69,192)"/>
<path d="M0 0 C6.72045875 2.19037174 13.36724003 4.55765661 20 7 C20 7.33 20 7.66 20 8 C17.69 8 15.38 8 13 8 C13 7.34 13 6.68 13 6 C11.9171875 6.0928125 11.9171875 6.0928125 10.8125 6.1875 C7.44201359 5.96280091 5.79130422 4.83638436 3 3 C2.01 2.67 1.02 2.34 0 2 C0 1.34 0 0.68 0 0 Z " fill="#E1BB30" transform="translate(104,255)"/>
<path d="M0 0 C0.33 0.66 0.66 1.32 1 2 C1.7425 1.649375 2.485 1.29875 3.25 0.9375 C6.1322726 -0.04509293 7.21176345 -0.0326802 10 1 C9.67 1.66 9.34 2.32 9 3 C3.36873699 4.31502187 -1.65846422 4.38963443 -7 2 C-7 1.67 -7 1.34 -7 1 C-3.535 0.505 -3.535 0.505 0 0 Z " fill="#F9CC11" transform="translate(135,250)"/>
<path d="M0 0 C1.37562854 1.28965176 2.70766393 2.62689293 4 4 C4 4.66 4 5.32 4 6 C7.96 6 11.92 6 16 6 C16 6.66 16 7.32 16 8 C4.38997308 8.40578735 4.38997308 8.40578735 1 6 C0.1875 2.875 0.1875 2.875 0 0 Z " fill="#EEC629" transform="translate(256,219)"/>
<path d="M0 0 C1.98 0 3.96 0 6 0 C6 0.66 6 1.32 6 2 C7.98 2 9.96 2 12 2 C11.67 2.66 11.34 3.32 11 4 C7.71585695 4.95067299 6.30306592 5.10102197 3 4 C1.66893378 3.65772583 0.33599921 3.32248257 -1 3 C-0.67 2.01 -0.34 1.02 0 0 Z " fill="#FAC813" transform="translate(282,260)"/>
<path d="M0 0 C-6.29687065 3.74408525 -13.38475828 5.3676517 -20.6875 4.625 C-21.450625 4.41875 -22.21375 4.2125 -23 4 C-23 3.67 -23 3.34 -23 3 C-21.87980469 2.79503906 -20.75960937 2.59007812 -19.60546875 2.37890625 C-18.13279176 2.10688311 -16.66013664 1.83474151 -15.1875 1.5625 C-14.44951172 1.42779297 -13.71152344 1.29308594 -12.95117188 1.15429688 C-2.51763835 -0.78133604 -2.51763835 -0.78133604 0 0 Z " fill="#362303" transform="translate(269,254)"/>
<path d="M0 0 C0.79921875 0.00902344 1.5984375 0.01804688 2.421875 0.02734375 C3.02515625 0.03894531 3.6284375 0.05054688 4.25 0.0625 C4.25 1.0525 4.25 2.0425 4.25 3.0625 C-2.185 3.5575 -2.185 3.5575 -8.75 4.0625 C-8.75 3.0725 -8.75 2.0825 -8.75 1.0625 C-5.75519083 0.1901588 -3.11424089 -0.04579766 0 0 Z " fill="#FBCB13" transform="translate(267.75,171.9375)"/>
<path d="M0 0 C0 3 0 3 -1.5 5.625 C-4.97482444 8.92608322 -7.28484286 8.76424214 -12 9 C-8.99375541 5.64688104 -6.04010925 3.93222616 -2 2 C-1.34 1.34 -0.68 0.68 0 0 Z " fill="#F0C518" transform="translate(329,235)"/>
<path d="M0 0 C6.71423321 1.19897022 10.8145594 3.61444119 16 8 C15.01 8.495 15.01 8.495 14 9 C11.50390625 7.890625 11.50390625 7.890625 8.5625 6.25 C7.59441406 5.71890625 6.62632813 5.1878125 5.62890625 4.640625 C3.38617759 3.24100236 1.74287161 1.96146907 0 0 Z " fill="#DEBC2F" transform="translate(90,234)"/>
<path d="M0 0 C2.00720923 0.28674418 4.0085944 0.61866701 6 1 C6.28875 1.928125 6.5775 2.85625 6.875 3.8125 C7.8875 7.09791667 7.8875 7.09791667 10 10 C6.61370242 8.54872961 4.51146089 6.67349063 2 4 C1.4225 3.4225 0.845 2.845 0.25 2.25 C-0.1625 1.8375 -0.575 1.425 -1 1 C-0.67 0.67 -0.34 0.34 0 0 Z " fill="#EDC217" transform="translate(312,150)"/>
<path d="M0 0 C0.33 0.99 0.66 1.98 1 3 C0.01257813 3.34933594 -0.97484375 3.69867188 -1.9921875 4.05859375 C-3.28648214 4.51816214 -4.58075167 4.97780123 -5.875 5.4375 C-6.52597656 5.66759766 -7.17695313 5.89769531 -7.84765625 6.13476562 C-11.48434022 7.42160116 -11.48434022 7.42160116 -15 9 C-15.66 8.34 -16.32 7.68 -17 7 C-11.39 4.69 -5.78 2.38 0 0 Z " fill="#DBB72E" transform="translate(301,252)"/>
<path d="M0 0 C1.93627769 -0.10807131 3.87427756 -0.1856225 5.8125 -0.25 C7.43091797 -0.31960937 7.43091797 -0.31960937 9.08203125 -0.390625 C12 0 12 0 13.88671875 1.890625 C15 4 15 4 15 6 C14.01 6 13.02 6 12 6 C11.67 4.68 11.34 3.36 11 2 C7.7 1.67 4.4 1.34 1 1 C1 4.3 1 7.6 1 11 C0.67 11 0.34 11 0 11 C0 7.37 0 3.74 0 0 Z " fill="#201001" transform="translate(128,176)"/>
<path d="M0 0 C2.97 1.65 5.94 3.3 9 5 C9 5.33 9 5.66 9 6 C4.545 6.495 4.545 6.495 0 7 C0 4.69 0 2.38 0 0 Z " fill="#ECC31E" transform="translate(81,242)"/>
<path d="M0 0 C0.66 0.33 1.32 0.66 2 1 C2.625 4.0625 2.625 4.0625 3 7 C2.01 7.495 2.01 7.495 1 8 C-1.31 6.35 -3.62 4.7 -6 3 C-4.125 1.9375 -4.125 1.9375 -2 1 C-1.34 1.33 -0.68 1.66 0 2 C0 1.34 0 0.68 0 0 Z " fill="#FBCC11" transform="translate(323,153)"/>
<path d="M0 0 C2.46800047 1.15173355 4.04783565 2.04783565 6 4 C3.39820337 5.30089831 1.4030812 5.16840078 -1.5 5.1875 C-2.4796875 5.20167969 -3.459375 5.21585938 -4.46875 5.23046875 C-7 5 -7 5 -9 3 C-3.25 2.875 -3.25 2.875 -1 4 C-0.67 2.68 -0.34 1.36 0 0 Z " fill="#EFC418" transform="translate(284,134)"/>
<path d="M0 0 C5.98993047 -0.3152595 9.63560356 0.31780178 15 3 C14.67 3.66 14.34 4.32 14 5 C9.16371695 4.00956295 4.52381127 3.04301154 0 1 C0 0.67 0 0.34 0 0 Z " fill="#2B1902" transform="translate(113,258)"/>
<path d="M0 0 C0.99 0 1.98 0 3 0 C3 0.99 3 1.98 3 3 C6.3 3 9.6 3 13 3 C13.33 3.66 13.66 4.32 14 5 C10.04 5 6.08 5 2 5 C1.34 3.35 0.68 1.7 0 0 Z " fill="#453001" transform="translate(258,220)"/>
<path d="M0 0 C0.66 0 1.32 0 2 0 C1.80664062 0.59425781 1.61328125 1.18851563 1.4140625 1.80078125 C-0.57733216 8.13972563 -1.94051231 14.44364086 -3 21 C-3.33 21 -3.66 21 -4 21 C-4.40566938 13.96839747 -3.07523451 7.72031901 -1 1 C-0.67 0.67 -0.34 0.34 0 0 Z " fill="#E7BF30" transform="translate(58,181)"/>
<path d="M0 0 C4.875 2.625 4.875 2.625 6 6 C6.66 6 7.32 6 8 6 C7.67 7.32 7.34 8.64 7 10 C4.36 7.36 1.72 4.72 -1 2 C-0.67 1.34 -0.34 0.68 0 0 Z " fill="#251501" transform="translate(318,169)"/>
<path d="M0 0 C2.1640625 -0.29296875 2.1640625 -0.29296875 4.625 -0.1875 C5.44226563 -0.16042969 6.25953125 -0.13335937 7.1015625 -0.10546875 C8.04128906 -0.05326172 8.04128906 -0.05326172 9 0 C9 0.99 9 1.98 9 3 C5.37 3 1.74 3 -2 3 C-1.34 2.01 -0.68 1.02 0 0 Z " fill="#FACA13" transform="translate(231,172)"/>
<path d="M0 0 C1.98 0 3.96 0 6 0 C6 0.66 6 1.32 6 2 C4.54462432 2.83848804 3.08559627 3.67063934 1.625 4.5 C0.40683594 5.19609375 0.40683594 5.19609375 -0.8359375 5.90625 C-3 7 -3 7 -5 7 C-5 6.34 -5 5.68 -5 5 C-4.34 5 -3.68 5 -3 5 C-3 4.34 -3 3.68 -3 3 C-2.01 3 -1.02 3 0 3 C0 2.01 0 1.02 0 0 Z " fill="#E9C227" transform="translate(90,148)"/>
<path d="M0 0 C1.31223496 3.93670488 0.24296256 6.12488144 -1 10 C-1.66 10 -2.32 10 -3 10 C-3.66 11.65 -4.32 13.3 -5 15 C-5.66 15 -6.32 15 -7 15 C-6.25 12.0625 -6.25 12.0625 -5 9 C-2.875 8.125 -2.875 8.125 -1 8 C-1.020625 6.865625 -1.04125 5.73125 -1.0625 4.5625 C-1 1 -1 1 0 0 Z " fill="#F3C221" transform="translate(346,207)"/>
<path d="M0 0 C0 0.33 0 0.66 0 1 C-3.3 1.33 -6.6 1.66 -10 2 C-10 2.66 -10 3.32 -10 4 C-12.64 3.67 -15.28 3.34 -18 3 C-18 2.67 -18 2.34 -18 2 C-11.84629161 0.176679 -6.40353322 -0.2361959 0 0 Z " fill="#130901" transform="translate(252,258)"/>
<path d="M0 0 C0.90105469 0.02707031 1.80210937 0.05414063 2.73046875 0.08203125 C3.76107422 0.13423828 3.76107422 0.13423828 4.8125 0.1875 C0.75441935 2.8928871 -3.23639399 5.1875 -8.1875 5.1875 C-8.1875 3.1875 -8.1875 3.1875 -7.01171875 1.57421875 C-4.56833632 -0.28317046 -3.03181482 -0.11812266 0 0 Z " fill="#F8CA0E" transform="translate(289.1875,241.8125)"/>
<path d="M0 0 C-1.59622656 1.03320481 -3.20229106 2.05122429 -4.8125 3.0625 C-6.15248047 3.91521484 -6.15248047 3.91521484 -7.51953125 4.78515625 C-10 6 -10 6 -13 5 C-12.34 4.01 -11.68 3.02 -11 2 C-8.375 1.8125 -8.375 1.8125 -6 2 C-6 1.34 -6 0.68 -6 0 C-3 -1 -3 -1 0 0 Z " fill="#E5BB31" transform="translate(307,237)"/>
<path d="M0 0 C3.3661306 1.59448291 4.7704207 2.50953514 6.375 5.9375 C6.96834915 8.84491086 7.0470501 10.27766975 6 13 C5.67 12.01 5.34 11.02 5 10 C4.34 9.34 3.68 8.68 3 8 C0 2.46153846 0 2.46153846 0 0 Z " fill="#FCC90F" transform="translate(336,170)"/>
<path d="M0 0 C3.96 0 7.92 0 12 0 C8.85426323 2.09715785 6.98543749 2.52004559 3.3125 3.125 C1.82169922 3.37636719 1.82169922 3.37636719 0.30078125 3.6328125 C-0.45847656 3.75398437 -1.21773438 3.87515625 -2 4 C-1.34 3.67 -0.68 3.34 0 3 C0 2.01 0 1.02 0 0 Z " fill="#E5BF2C" transform="translate(128,133)"/>
<path d="M0 0 C1.2065625 0.0309375 1.2065625 0.0309375 2.4375 0.0625 C2.4375 0.7225 2.4375 1.3825 2.4375 2.0625 C5.7375 2.0625 9.0375 2.0625 12.4375 2.0625 C7.72068437 4.42090782 5.40604741 4.17227801 0.4375 3.0625 C-2.0625 2 -2.0625 2 -3.5625 1.0625 C-2.5625 0.0625 -2.5625 0.0625 0 0 Z " fill="#D6B623" transform="translate(141.5625,252.9375)"/>
<path d="M0 0 C1.28222189 3.03070628 0.98589446 4.03596914 -0.25 7.1875 C-2 10 -2 10 -5 11 C-4.67 9.02 -4.34 7.04 -4 5 C-3.34 5 -2.68 5 -2 5 C-1.34 3.35 -0.68 1.7 0 0 Z " fill="#FBC80E" transform="translate(343,217)"/>
<path d="M0 0 C2.97 0 5.94 0 9 0 C9 0.99 9 1.98 9 3 C6.03 3 3.06 3 0 3 C0 2.01 0 1.02 0 0 Z " fill="#FBCB14" transform="translate(128,172)"/>
<path d="M0 0 C1.98270912 0.95098266 3.96108379 1.91100703 5.9375 2.875 C7.03964844 3.40867188 8.14179688 3.94234375 9.27734375 4.4921875 C12 6 12 6 13 8 C10.03 7.505 10.03 7.505 7 7 C7 6.34 7 5.68 7 5 C6.21625 4.9175 5.4325 4.835 4.625 4.75 C2 4 2 4 0.8359375 1.953125 C0.56007813 1.30859375 0.28421875 0.6640625 0 0 Z " fill="#DDBB30" transform="translate(297,158)"/>
<path d="M0 0 C-0.33 0.66 -0.66 1.32 -1 2 C0.65 2.33 2.3 2.66 4 3 C0.45332822 4.25127906 -1.72253438 3.72285053 -5.25 2.5625 C-6.14203125 2.27503906 -7.0340625 1.98757812 -7.953125 1.69140625 C-8.62859375 1.46324219 -9.3040625 1.23507813 -10 1 C-10 0.67 -10 0.34 -10 0 C-2.25 -1.125 -2.25 -1.125 0 0 Z " fill="#E3BE2A" transform="translate(271,133)"/>
<path d="M0 0 C2.5999298 2.51027705 4.99091227 4.9863684 7 8 C7 8.66 7 9.32 7 10 C6.34 10 5.68 10 5 10 C4.34 9.01 3.68 8.02 3 7 C0.94074861 6.27617533 0.94074861 6.27617533 -1 6 C-0.67 4.02 -0.34 2.04 0 0 Z " fill="#E6BF26" transform="translate(244,202)"/>
<path d="M0 0 C0 0.66 0 1.32 0 2 C-5.07476794 3.26305335 -9.72796354 4.27036084 -15 4 C-12.3851183 2.25674553 -10.9946567 1.58412043 -8.0625 0.875 C-7.39347656 0.70742187 -6.72445312 0.53984375 -6.03515625 0.3671875 C-4 0 -4 0 0 0 Z " fill="#2C2002" transform="translate(144,133)"/>
<path d="M0 0 C0.66 0 1.32 0 2 0 C2 0.99 2 1.98 2 3 C-0.58789062 4.07421875 -0.58789062 4.07421875 -3.17578125 5.1484375 C-5.26533932 6.06806692 -5.26533932 6.06806692 -8 8 C-10.1875 7.625 -10.1875 7.625 -12 7 C-11.21753906 6.57847656 -10.43507813 6.15695313 -9.62890625 5.72265625 C-8.61699219 5.17480469 -7.60507812 4.62695312 -6.5625 4.0625 C-5.55316406 3.51722656 -4.54382813 2.97195312 -3.50390625 2.41015625 C-1.13329507 1.22300532 -1.13329507 1.22300532 0 0 Z " fill="#E5C12D" transform="translate(315,244)"/>
<path d="M0 0 C-1.93467942 0.83986084 -3.87285129 1.67168027 -5.8125 2.5 C-7.43091797 3.19609375 -7.43091797 3.19609375 -9.08203125 3.90625 C-12 5 -12 5 -15 5 C-15 4.34 -15 3.68 -15 3 C-13 2.33333333 -11 1.66666667 -9 1 C-7.948125 0.608125 -6.89625 0.21625 -5.8125 -0.1875 C-3 -1 -3 -1 0 0 Z " fill="#E1BD30" transform="translate(294,244)"/>
<path d="M0 0 C1.12894876 0.93274109 2.25300876 1.87140122 3.375 2.8125 C4.00148438 3.33457031 4.62796875 3.85664063 5.2734375 4.39453125 C7 6 7 6 9 9 C5.19902189 8.45700313 3.42542103 6.92723228 1 4 C0.38671875 1.86328125 0.38671875 1.86328125 0 0 Z " fill="#261500" transform="translate(74,221)"/>
<path d="M0 0 C2.475 0.495 2.475 0.495 5 1 C5 1.66 5 2.32 5 3 C7.64 3.33 10.28 3.66 13 4 C12.34 4.66 11.68 5.32 11 6 C9.3501725 5.57781184 7.70516335 5.13675575 6.0625 4.6875 C5.14597656 4.44386719 4.22945313 4.20023438 3.28515625 3.94921875 C2.53105469 3.63597656 1.77695312 3.32273438 1 3 C0.67 2.01 0.34 1.02 0 0 Z " fill="#F0C815" transform="translate(299,162)"/>
<path d="M0 0 C0.66 0.66 1.32 1.32 2 2 C0.71283353 3.00578589 -0.57988658 4.00446798 -1.875 5 C-2.95394531 5.8353125 -2.95394531 5.8353125 -4.0546875 6.6875 C-6 8 -6 8 -8 8 C-6.70989008 5.12206249 -5.42638194 3.03816083 -3 1 C-2.01 0.67 -1.02 0.34 0 0 Z " fill="#271800" transform="translate(90,163)"/>
<path d="M0 0 C1.91731918 0.11455681 3.8338675 0.24206258 5.75 0.375 C7.35101563 0.47941406 7.35101563 0.47941406 8.984375 0.5859375 C11.80206432 0.9728223 13.5830366 1.55686166 16 3 C16 3.33 16 3.66 16 4 C10.49191603 3.40984815 5.35121931 2.43336231 0 1 C0 0.67 0 0.34 0 0 Z " fill="#322204" transform="translate(128,263)"/>
<path d="M0 0 C1.31611677 0.95336021 2.62778961 1.91285774 3.9375 2.875 C4.66839844 3.40867188 5.39929688 3.94234375 6.15234375 4.4921875 C8 6 8 6 9 8 C4.96825194 7.72510809 3.43105369 7.46508424 0.625 4.4375 C-0.179375 3.2309375 -0.179375 3.2309375 -1 2 C-0.67 1.34 -0.34 0.68 0 0 Z " fill="#1E1401" transform="translate(321,160)"/>
<path d="M0 0 C1.98 0 3.96 0 6 0 C5.01 0.495 5.01 0.495 4 1 C4 2.32 4 3.64 4 5 C1.36 4.67 -1.28 4.34 -4 4 C-2.68 3.67 -1.36 3.34 0 3 C0 2.01 0 1.02 0 0 Z " fill="#201807" transform="translate(160,266)"/>
<path d="M0 0 C1.32 0.33 2.64 0.66 4 1 C4 1.99 4 2.98 4 4 C1.69 4.33 -0.62 4.66 -3 5 C-2.01 3.35 -1.02 1.7 0 0 Z " fill="#F0C71F" transform="translate(275,246)"/>
<path d="M0 0 C0.66 0 1.32 0 2 0 C2.29296875 6.0546875 2.29296875 6.0546875 2 8 C1.01 8.66 0.02 9.32 -1 10 C-1.02689216 8.52093108 -1.04634621 7.04172517 -1.0625 5.5625 C-1.07410156 4.73878906 -1.08570313 3.91507813 -1.09765625 3.06640625 C-1 1 -1 1 0 0 Z " fill="#F8CC11" transform="translate(242,202)"/>
<path d="M0 0 C3.7952131 1.49097658 5.61042731 3.75700849 8 7 C5.69 6.67 3.38 6.34 1 6 C0.67 4.02 0.34 2.04 0 0 Z " fill="#E6C12E" transform="translate(314,169)"/>
<path d="M0 0 C4.20626034 1.50223584 5.73900021 4.28550034 8 8 C7.34 8.66 6.68 9.32 6 10 C3.78286492 6.74820188 1.65167557 3.5786304 0 0 Z " fill="#DFBA28" transform="translate(332,169)"/>
<path d="M0 0 C-0.99 0.33 -1.98 0.66 -3 1 C-3 1.66 -3 2.32 -3 3 C-6.32534757 4.10844919 -8.62182575 3.84454356 -12 3 C-3.33333333 -1.66666667 -3.33333333 -1.66666667 0 0 Z " fill="#332105" transform="translate(284,249)"/>
<path d="M0 0 C0.66 0 1.32 0 2 0 C0.6062718 4.43458973 -1.60582235 6.87378374 -5 10 C-4.67 8.35 -4.34 6.7 -4 5 C-3.34 5 -2.68 5 -2 5 C-1.34 3.35 -0.68 1.7 0 0 Z " fill="#241A00" transform="translate(337,220)"/>
<path d="M0 0 C-1.4317616 0.69937202 -2.87067032 1.38412718 -4.3125 2.0625 C-5.51326172 2.63677734 -5.51326172 2.63677734 -6.73828125 3.22265625 C-9 4 -9 4 -12 3 C-8.5571185 -1.16769866 -4.97775588 -1.39503986 0 0 Z " fill="#1B0E00" transform="translate(111,155)"/>
<path d="M0 0 C2.64 0 5.28 0 8 0 C8 0.66 8 1.32 8 2 C8.99 2.33 9.98 2.66 11 3 C3.57142857 3.28571429 3.57142857 3.28571429 0 1 C0 0.67 0 0.34 0 0 Z " fill="#080109" transform="translate(272,146)"/>
<path d="M0 0 C2.49361571 1.20381448 4.68143083 2.45428722 7 4 C6.67 4.99 6.34 5.98 6 7 C3.69 5.35 1.38 3.7 -1 2 C-0.67 1.34 -0.34 0.68 0 0 Z " fill="#211601" transform="translate(73,233)"/>
<path d="M0 0 C2.40072955 2.88087546 4.47291037 5.56404834 6 9 C4.125 8.75 4.125 8.75 2 8 C-0.02755186 5.06004981 0 3.72295997 0 0 Z " fill="#DDB727" transform="translate(60,219)"/>
<path d="M0 0 C3 3.75 3 3.75 3 6 C3.66 6 4.32 6 5 6 C4.67 7.32 4.34 8.64 4 10 C2.02 7.03 0.04 4.06 -2 1 C-1.34 0.67 -0.68 0.34 0 0 Z " fill="#EBBF2B" transform="translate(248,183)"/>
<path d="M0 0 C0 4.24645065 -1.81750806 6.38524772 -4 10 C-4.99 9.67 -5.98 9.34 -7 9 C-4.69 6.03 -2.38 3.06 0 0 Z " fill="#271A01" transform="translate(68,170)"/>
<path d="M0 0 C1.69141656 0.08963062 3.37959602 0.24577676 5.0625 0.4375 C6.44115234 0.59025391 6.44115234 0.59025391 7.84765625 0.74609375 C8.55792969 0.82988281 9.26820312 0.91367188 10 1 C7.64046906 3.35953094 6.22104383 3.49141413 3 4 C3 3.34 3 2.68 3 2 C1.68 1.67 0.36 1.34 -1 1 C-0.67 0.67 -0.34 0.34 0 0 Z " fill="#EAC126" transform="translate(115,136)"/>
<path d="M0 0 C1.32 0.33 2.64 0.66 4 1 C3.67 2.98 3.34 4.96 3 7 C2.01 6.34 1.02 5.68 0 5 C-0.1875 2.375 -0.1875 2.375 0 0 Z " fill="#E8C417" transform="translate(90,248)"/>
<path d="M0 0 C2.79872437 2.52788007 4.45773019 4.20411134 5 8 C2.525 7.01 2.525 7.01 0 6 C0 4.02 0 2.04 0 0 Z " fill="#DABD37" transform="translate(140,199)"/>
<path d="M0 0 C-1.11666174 3.34998521 -1.74694925 3.79340222 -4.5625 5.6875 C-5.20316406 6.12449219 -5.84382813 6.56148437 -6.50390625 7.01171875 C-6.99761719 7.33785156 -7.49132812 7.66398438 -8 8 C-8 7.01 -8 6.02 -8 5 C-2.65116279 0 -2.65116279 0 0 0 Z " fill="#E8C01D" transform="translate(108,156)"/>
<path d="M0 0 C2.49361571 1.20381448 4.68143083 2.45428722 7 4 C7 4.66 7 5.32 7 6 C7.66 6 8.32 6 9 6 C9 6.66 9 7.32 9 8 C4.7257442 6.4169423 2.73468206 3.49431596 0 0 Z " fill="#DDBB35" transform="translate(77,223)"/>
<path d="M0 0 C0.99 0 1.98 0 3 0 C3 0.99 3 1.98 3 3 C3.99 3.33 4.98 3.66 6 4 C6.33 4.99 6.66 5.98 7 7 C6.01 7 5.02 7 4 7 C2.02 3.535 2.02 3.535 0 0 Z " fill="#241200" transform="translate(252,212)"/>
<path d="M0 0 C0.99 0.33 1.98 0.66 3 1 C2.67 2.32 2.34 3.64 2 5 C1.34 5 0.68 5 0 5 C0 6.65 0 8.3 0 10 C-0.33 10 -0.66 10 -1 10 C-0.67 6.7 -0.34 3.4 0 0 Z " fill="#F9CB12" transform="translate(242,214)"/>
<path d="M0 0 C-0.33 0.66 -0.66 1.32 -1 2 C-1.99 2 -2.98 2 -4 2 C-4 2.66 -4 3.32 -4 4 C-7 3 -7 3 -9 1 C-5.64919071 -1.10976881 -3.77897651 -1.0497157 0 0 Z " fill="#1B1100" transform="translate(109,146)"/>
<path d="M0 0 C1.65 0.33 3.3 0.66 5 1 C5 1.99 5 2.98 5 4 C3.35 3.67 1.7 3.34 0 3 C0 2.01 0 1.02 0 0 Z " fill="#140A02" transform="translate(251,140)"/>
<path d="M0 0 C0.66 0.33 1.32 0.66 2 1 C3.53668865 1.22467831 5.07968054 1.40796805 6.625 1.5625 C7.44226563 1.64628906 8.25953125 1.73007813 9.1015625 1.81640625 C9.72804688 1.87699219 10.35453125 1.93757812 11 2 C11 2.33 11 2.66 11 3 C7.7 3 4.4 3 1 3 C0.67 3.99 0.34 4.98 0 6 C-1.125 2.25 -1.125 2.25 0 0 Z " fill="#F9D013" transform="translate(107,137)"/>
<path d="M0 0 C1.32 0.33 2.64 0.66 4 1 C4.66 3.31 5.32 5.62 6 8 C1.125 3.375 1.125 3.375 0 0 Z " fill="#2E1E02" transform="translate(244,201)"/>
<path d="M0 0 C0.66 0 1.32 0 2 0 C2.33 1.32 2.66 2.64 3 4 C1.68 4 0.36 4 -1 4 C-1.33 4.99 -1.66 5.98 -2 7 C-2.66 6.67 -3.32 6.34 -4 6 C-2.7260411 3.96166576 -1.38938077 1.96147874 0 0 Z " fill="#261902" transform="translate(164,176)"/>
<path d="M0 0 C0.66 0.33 1.32 0.66 2 1 C2 2.32 2 3.64 2 5 C0 6.75 0 6.75 -2 8 C-1.125 1.125 -1.125 1.125 0 0 Z " fill="#FBC90D" transform="translate(58,176)"/>
<path d="M0 0 C0.33 0.99 0.66 1.98 1 3 C-2.22791555 5.1519437 -3.28400809 5.20086443 -7 5 C-2.25 1.125 -2.25 1.125 0 0 Z " fill="#2E1903" transform="translate(94,150)"/>
<path d="M0 0 C1.67542976 0.28604898 3.34385343 0.61781233 5 1 C4.67 1.99 4.34 2.98 4 4 C1.9375 4.6875 1.9375 4.6875 0 5 C-0.5625 3.0625 -0.5625 3.0625 -1 1 C-0.67 0.67 -0.34 0.34 0 0 Z " fill="#050307" transform="translate(303,151)"/>
<path d="M0 0 C0 0.33 0 0.66 0 1 C-3.63 0.67 -7.26 0.34 -11 0 C-11 -0.33 -11 -0.66 -11 -1 C-6.70700357 -2.26264601 -4.12168689 -1.62950412 0 0 Z " fill="#2D2102" transform="translate(251,142)"/>
<path d="M0 0 C0.33 1.32 0.66 2.64 1 4 C-1.64 3.34 -4.28 2.68 -7 2 C-7 1.67 -7 1.34 -7 1 C-3.535 0.505 -3.535 0.505 0 0 Z " fill="#DAB922" transform="translate(135,250)"/>
<path d="M0 0 C4.67692308 1.47692308 4.67692308 1.47692308 6.3125 4.125 C6.539375 4.74375 6.76625 5.3625 7 6 C3.62496331 4.8141763 1.35277269 3.72426311 -1 1 C-0.67 0.67 -0.34 0.34 0 0 Z " fill="#2A1900" transform="translate(83,241)"/>
<path d="M0 0 C1.32 1.65 2.64 3.3 4 5 C2.68 5.99 1.36 6.98 0 8 C0 5.36 0 2.72 0 0 Z " fill="#DCBC46" transform="translate(240,196)"/>
<path d="M0 0 C2.475 0.495 2.475 0.495 5 1 C5 2.32 5 3.64 5 5 C4.01 5 3.02 5 2 5 C1.34 3.35 0.68 1.7 0 0 Z " fill="#E8C123" transform="translate(253,193)"/>
</svg>
